<svg width="305" height="305" viewBox="0 0 305 305" fill="none" xmlns="http://www.w3.org/2000/svg">
<path d="M130.529 36.4541C129.966 36.4718 129.413 36.6072 128.905 36.8517C128.398 37.0961 127.947 37.444 127.582 37.8732C127.217 38.3023 126.946 38.8031 126.787 39.3433C126.627 39.8835 126.582 40.4512 126.655 41.0097C126.883 43.5168 127.111 46.2517 127.111 48.7543C127.129 49.1772 127.234 49.5919 127.418 49.9731C127.603 50.3542 127.863 50.6938 128.183 50.9711C128.502 51.2484 128.876 51.4575 129.279 51.5858C129.682 51.714 130.108 51.7586 130.529 51.7169C137.363 51.2614 140.096 48.7543 139.874 43.5168C139.417 38.0486 136.227 36.4541 130.529 36.4541Z" fill="#6EF283"/>
<path d="M131.441 58.1039C130.616 58.2161 129.86 58.625 129.315 59.2541C128.769 59.8833 128.472 60.6895 128.478 61.5221C128.706 64.711 128.934 67.4444 129.161 70.4101C129.209 70.8941 129.364 71.3612 129.617 71.7768C132.823 67.4325 136.662 63.5935 141.006 60.3877C139.416 58.5594 136.226 57.6483 131.441 58.1039Z" fill="#6EF283"/>
<path d="M112.981 23.4568C100.903 28.0124 91.3315 35.7569 87.0007 46.247C84.6726 54.9247 85.2328 64.1244 88.5966 72.4555C91.6973 80.3216 97.0946 87.072 104.086 91.8275C109.67 90.4228 115.424 89.8094 121.178 90.0052C121.96 86.9778 122.95 84.008 124.141 81.1172L124.824 79.7505L116.392 80.8894C116.192 80.9407 115.983 80.9431 115.783 80.8964C115.582 80.8497 115.395 80.7553 115.239 80.6212C115.082 80.4871 114.961 80.3172 114.884 80.126C114.807 79.9348 114.777 79.7278 114.798 79.5227C114.798 78.8379 115.253 77.9268 115.936 77.9268C117.403 77.5663 118.7 76.7131 119.613 75.5101C120.525 74.307 120.996 72.8271 120.948 71.3181C120.72 66.9872 118.896 45.793 118.44 41.2343C118.285 39.6775 117.58 38.227 116.453 37.142C115.325 36.057 113.849 35.4084 112.287 35.312C111.376 35.312 110.921 34.6287 110.691 33.7175C110.67 33.3266 110.799 32.9424 111.054 32.645C111.309 32.3476 111.668 32.1601 112.058 32.1216L124.137 31.8938H125.503L125.275 27.5629C125.176 27.0364 125.188 26.495 125.309 25.9732C125.43 25.4513 125.659 24.9605 125.981 24.532C126.302 24.1034 126.71 23.7465 127.177 23.484C127.644 23.2215 128.16 23.0592 128.694 23.0073C130.744 23.0073 132.338 25.0588 132.567 27.5629L132.795 31.8938C140.772 32.3493 145.559 36.6802 146.007 42.8273C146.141 44.5916 145.812 46.3605 145.052 47.9586C144.293 49.5568 143.129 50.9287 141.676 51.9385C141.412 52.1362 141.207 52.401 141.081 52.7052C140.955 53.0094 140.913 53.3418 140.96 53.6678C141.006 53.9937 141.14 54.3011 141.346 54.5579C141.552 54.8147 141.823 55.0114 142.131 55.1274C143.635 55.6087 145.028 56.3828 146.231 57.4052C148.291 56.2816 150.422 55.292 152.609 54.4426C157.268 52.8228 162.078 51.6776 166.967 51.0243C166.739 49.8839 166.284 48.7465 166.056 47.8354C158.79 26.4255 135.088 15.486 112.981 23.4568Z" fill="#6EF283"/>
<path d="M184.769 119.638C192.058 119.638 195.702 117.131 196.158 112.117C196.614 106.875 193.425 103.917 185.448 103.461C184.572 103.432 183.721 103.752 183.08 104.349C182.439 104.947 182.062 105.774 182.03 106.65C181.8 109.839 181.574 113.028 181.574 115.994C181.497 116.451 181.523 116.92 181.65 117.366C181.776 117.813 182.001 118.225 182.307 118.574C182.613 118.923 182.992 119.199 183.418 119.383C183.844 119.567 184.305 119.654 184.769 119.638Z" fill="#6EF283"/>
<path d="M185.455 96.6199C192.744 97.0755 195.933 95.0239 196.165 89.5541C196.621 83.8566 193.66 81.5773 187.51 80.8985C186.924 80.8441 186.334 80.9078 185.774 81.0859C185.214 81.264 184.695 81.5528 184.249 81.9353C183.802 82.3177 183.437 82.7859 183.175 83.3121C182.913 83.8383 182.759 84.4118 182.723 84.9985C182.496 87.7319 182.268 90.4653 182.268 92.9739C182.231 93.4239 182.286 93.8766 182.427 94.3052C182.569 94.7339 182.795 95.1299 183.092 95.4698C183.389 95.8096 183.751 96.0865 184.157 96.2841C184.563 96.4816 185.004 96.5958 185.455 96.6199Z" fill="#6EF283"/>
<path d="M218.728 89.7819C210.983 68.5876 187.277 57.6481 165.172 65.6249C159.216 67.7936 153.794 71.2147 149.273 75.6573C144.751 80.0999 141.235 85.4607 138.962 91.3778C138.996 91.6989 138.916 92.0217 138.734 92.289C142.028 93.0084 145.235 94.0774 148.301 95.4779C158.653 100.207 166.92 108.555 171.547 118.953C172.255 118.038 172.654 116.921 172.686 115.764C172.914 111.208 174.282 89.1 174.508 84.3136C174.593 82.6768 174.088 81.0638 173.085 79.7676C172.082 78.4714 170.647 77.5779 169.041 77.2494C168.632 77.1618 168.268 76.929 168.017 76.5941C167.766 76.2592 167.644 75.8447 167.675 75.4271C167.682 75.2086 167.738 74.9946 167.839 74.8007C167.94 74.6069 168.083 74.4381 168.258 74.307C168.433 74.1758 168.635 74.0856 168.85 74.0429C169.064 74.0002 169.285 74.0062 169.497 74.0604L183.619 75.8827L183.847 71.5533C184.075 69.0462 185.899 66.9977 187.947 67.4533C189.997 67.6826 191.592 70.1866 191.365 72.6953L191.138 77.0261C199.338 78.6206 203.672 83.8596 203.216 90.2374C203.123 92.1156 202.523 93.9335 201.48 95.4985C200.438 97.0635 198.991 98.3172 197.294 99.1269C196.984 99.292 196.724 99.5382 196.544 99.8392C196.363 100.14 196.267 100.485 196.267 100.836C196.267 101.187 196.363 101.532 196.544 101.833C196.724 102.134 196.984 102.38 197.294 102.545C202.079 105.052 203.902 108.698 203.672 113.023C203.216 118.722 198.66 124.648 187.947 125.331L187.718 130.116C187.49 132.394 185.896 134.447 183.844 134.447C183.321 134.424 182.809 134.288 182.343 134.05C181.877 133.811 181.468 133.475 181.144 133.064C180.819 132.653 180.587 132.177 180.463 131.668C180.34 131.159 180.327 130.63 180.426 130.116L180.654 125.331H173.82C175.221 129.902 175.837 134.677 175.642 139.453C187.079 136.825 198.641 134.771 210.283 133.3C220.552 121.005 224.198 104.595 218.728 89.7819Z" fill="#6EF283"/>
<path d="M130.53 124.652C127.112 120.321 123.466 120.552 118.451 123.967C117.975 124.306 117.575 124.741 117.278 125.245C116.982 125.749 116.795 126.309 116.73 126.891C116.666 127.472 116.725 128.06 116.904 128.616C117.083 129.173 117.377 129.686 117.768 130.12C119.364 132.172 121.186 134.451 122.779 136.498C123.341 137.198 124.148 137.658 125.037 137.785C125.925 137.912 126.829 137.696 127.564 137.182C133.037 132.627 133.95 128.981 130.53 124.652Z" fill="#6EF283"/>
<path d="M145.572 141.295C142.383 137.195 138.05 136.966 131.905 141.98C131.233 142.569 130.812 143.393 130.728 144.282C130.643 145.172 130.901 146.06 131.449 146.765C132.133 147.676 132.816 148.361 133.499 149.272C138.055 148.133 142.61 146.765 147.401 145.628C147.191 144.046 146.559 142.549 145.572 141.295Z" fill="#6EF283"/>
<path d="M166.761 128.982C159.016 107.787 135.317 96.8478 113.21 104.825C90.6472 113.025 78.7965 137.87 86.5456 159.976C87.0012 160.66 87.229 161.572 87.6845 162.254C97.2513 159.521 110.247 155.646 124.377 151.776C123.466 150.865 113.899 138.565 110.932 134.911C109.848 133.681 108.379 132.853 106.765 132.564C105.151 132.274 103.486 132.54 102.042 133.317C101.672 133.53 101.237 133.601 100.818 133.517C100.399 133.433 100.025 133.2 99.7645 132.861C99.616 132.703 99.5031 132.515 99.4334 132.31C99.3637 132.104 99.3388 131.887 99.3604 131.671C99.382 131.455 99.4495 131.246 99.5585 131.059C99.6675 130.871 99.8154 130.709 99.9923 130.584L111.615 122.384L108.882 118.965C107.286 116.914 107.286 114.179 109.11 113.043C110.119 112.527 111.284 112.405 112.378 112.7C113.473 112.995 114.419 113.686 115.032 114.639L117.765 118.057C125.054 113.728 131.668 114.639 135.541 119.879C136.693 121.338 137.446 123.07 137.726 124.907C138.005 126.744 137.803 128.622 137.137 130.357C137.016 130.685 136.987 131.04 137.054 131.383C137.12 131.726 137.28 132.044 137.515 132.302C137.75 132.561 138.051 132.75 138.386 132.849C138.722 132.948 139.077 132.953 139.415 132.863C141.504 132.171 143.753 132.128 145.867 132.738C147.981 133.349 149.861 134.584 151.26 136.283C152.926 138.431 153.811 141.084 153.767 143.803C158.778 142.436 163.789 141.295 168.808 140.158C168.794 136.341 168.101 132.556 166.761 128.982Z" fill="#6EF283"/>
<path d="M260.89 241.338L254.968 216.952C257.046 216.182 258.864 214.839 260.21 213.078C260.87 212.125 261.332 211.048 261.566 209.912C261.801 208.777 261.805 207.605 261.577 206.468L253.144 171.827C252.459 168.865 249.044 166.361 242.888 167.042L237.189 143.573C234 130.584 232.633 130.362 219.413 131.729H218.728C222.261 127.698 225.178 123.167 227.384 118.282C232.417 106.881 232.826 93.9711 228.524 82.2745C226.419 76.4968 223.176 71.2003 218.987 66.6985C214.799 62.1968 209.749 58.5812 204.138 56.066C200.14 54.3003 195.925 53.0747 191.604 52.4215C186.157 51.1165 180.567 50.5042 174.967 50.5992C174.704 46.5512 173.859 42.5622 172.46 38.7546C170.413 33.1943 167.286 28.0941 163.258 23.7484C159.231 19.4026 154.383 15.8973 148.994 13.4345C145.154 11.672 141.089 10.4457 136.915 9.79003C124.687 6.84879 111.871 7.48128 99.992 11.6123C87.8115 16.1806 77.9098 25.3457 72.4153 37.1374C69.8129 42.7539 68.3705 48.8379 68.1746 55.0249C67.9786 61.212 69.0331 67.375 71.2749 73.145C74.9194 82.2562 82.4438 90.2377 92.4707 95.7074C81.9492 100.982 73.5173 109.655 68.5416 120.321C66.7784 124.161 65.5521 128.226 64.8971 132.4C45.9791 139.018 40.9649 149.951 42.7871 158.151L71.5042 277.802C72.3464 280.896 73.8117 283.786 75.8104 286.294C77.809 288.802 80.2988 290.875 83.1271 292.387C88.4662 295.183 94.4217 296.594 100.448 296.49C107.07 296.436 113.63 295.201 119.82 292.846C149.446 282.589 212.803 267.321 243.114 263.217C252.913 261.851 257.692 260.029 259.979 256.609C263.397 252.733 262.259 247.264 260.89 241.338ZM258.157 207.381C258.293 208.054 258.282 208.749 258.125 209.417C257.968 210.086 257.668 210.713 257.246 211.255L256.562 211.938C254.846 213.467 252.695 214.423 250.409 214.671C249.725 214.671 249.043 214.899 248.358 214.899C238.007 216.653 227.8 219.167 217.818 222.42C215.541 223.332 215.085 223.104 214.856 223.104C214.141 222.389 206.656 190.431 206.656 190.287C209.555 187.388 235.418 182.331 239.247 181.631L242.665 180.946C243.558 180.702 244.474 180.549 245.398 180.491C246.652 180.248 247.874 179.866 249.043 179.352C249.887 178.953 250.658 178.413 251.32 177.756L258.157 207.381ZM75.6058 38.7319C78.0366 33.2605 81.5519 28.339 85.9393 24.2652C90.3266 20.1913 95.4947 17.0498 101.131 15.0305C105.61 13.3805 110.282 12.3089 115.033 11.8416C114.578 12.0694 114.35 12.0694 113.894 12.2971C101.714 16.866 91.8125 26.0309 86.3176 37.8223C83.7149 43.439 82.2724 49.5232 82.0765 55.7106C81.8805 61.8979 82.9351 68.0612 85.1772 73.8314C88.1527 81.514 93.2026 88.2198 99.7642 93.2019C98.7526 93.5161 97.7628 93.8971 96.8016 94.3423C86.3236 89.1003 78.3407 81.131 74.6947 72.2354C72.5825 66.8773 71.5745 61.1478 71.7311 55.3906C71.8876 49.6334 73.2056 43.9672 75.6058 38.7319ZM213.489 132.172C212.578 132.172 211.438 132.4 210.526 132.4C200.27 133.767 188.42 135.82 175.884 138.553C175.966 133.78 175.352 129.019 174.062 124.423C173.834 123.512 173.377 122.373 173.151 121.462C172.673 120.514 172.291 119.521 172.012 118.498C167.384 108.1 159.116 99.7515 148.763 95.0241C145.684 93.6562 142.48 92.5882 139.196 91.8352C139.162 91.5141 139.243 91.1913 139.424 90.924C140.104 87.9423 141.097 85.0408 142.388 82.2684C144.947 76.5556 148.624 71.4138 153.204 67.147C157.784 62.8802 163.173 59.5749 169.052 57.4266C174.016 55.6196 179.258 54.6946 184.541 54.6932C193.458 54.5997 202.186 57.2649 209.53 62.3239C216.874 67.3828 222.474 74.5882 225.565 82.9532C228.493 91.4503 228.912 100.611 226.77 109.34C224.628 118.069 220.017 125.996 213.488 132.172H213.489ZM169.275 140.372C164.264 141.511 159.253 142.65 154.234 144.017C151.956 144.472 149.679 145.157 147.624 145.613C142.839 146.752 138.28 148.12 133.723 149.257C130.761 150.168 127.801 150.853 124.834 151.764C110.711 155.64 97.7142 159.509 88.1413 162.242C87.6858 161.559 87.458 160.646 87.0024 159.964L85.6357 157.231C83.467 151.649 82.4306 145.692 82.587 139.705C82.7435 133.719 84.0895 127.823 86.5469 122.362C89.1067 116.652 92.785 111.513 97.3644 107.248C101.944 102.983 107.332 99.6789 113.209 97.5312C118.177 95.7232 123.422 94.7982 128.708 94.7978C137.625 94.7044 146.352 97.3697 153.696 102.429C161.039 107.488 166.639 114.693 169.729 123.058C171.632 128.394 172.558 134.03 172.463 139.695C171.325 139.929 170.185 140.149 169.274 140.384L169.275 140.372ZM167.672 54.6856C161.34 56.9732 155.533 60.5132 150.6 65.0944C145.666 69.6757 141.706 75.2041 138.956 81.3497C137.512 84.6591 136.368 88.0916 135.538 91.6059C132.028 90.7242 128.44 90.1896 124.826 90.0099C125.534 87.3611 126.448 84.7717 127.56 82.2653C130.118 76.5526 133.797 71.4109 138.377 67.1441C142.957 62.8773 148.346 59.572 154.225 57.4236C159.203 55.5658 164.417 54.4152 169.714 54.0053L167.672 54.6856ZM167.444 51.0411C162.555 51.6946 157.745 52.8398 153.086 54.4594C150.899 55.3082 148.768 56.2978 146.708 57.422C144.787 58.3954 142.958 59.5394 141.242 60.8403C136.845 63.9851 132.997 67.833 129.853 72.2293C128.118 74.6775 126.594 77.2683 125.297 79.9739C125.068 80.4294 124.84 80.885 124.612 81.3406C123.32 84.193 122.327 87.1715 121.649 90.2286C115.899 90.1461 110.16 90.7579 104.557 92.0508C97.3959 87.4813 91.9495 80.6696 89.0676 72.6788C85.8169 64.3226 85.2589 55.1593 87.4717 46.4703C88.0675 44.0372 88.9074 41.6705 89.9788 39.4061C92.4091 33.9378 95.9226 29.0189 100.307 24.9466C104.692 20.8742 109.856 17.7329 115.489 15.7123C125.856 11.771 137.364 12.1008 147.488 16.6296C157.613 21.1584 165.529 29.5166 169.502 39.8723C170.803 43.3825 171.571 47.068 171.779 50.8058C170.333 50.6492 168.871 50.7282 167.45 51.0396L167.444 51.0411ZM114.122 93.6574L112.07 94.3408C105.738 96.6277 99.9314 100.168 94.9976 104.749C90.0638 109.33 86.1041 114.859 83.3549 121.005C80.6394 126.872 79.1385 133.228 78.9426 139.691C78.7466 146.153 79.8595 152.589 82.2145 158.61C82.8809 160.247 83.6414 161.845 84.4923 163.395C81.7589 164.078 79.4811 164.761 77.428 165.446C76.9725 165.674 76.5169 165.674 76.0614 165.902C73.9335 163.181 72.1712 160.193 70.8194 157.014C68.651 151.432 67.6149 145.474 67.7713 139.488C67.9277 133.502 69.2736 127.606 71.7305 122.145C74.2891 116.432 77.9671 111.29 82.5472 107.024C87.1273 102.757 92.5165 99.4515 98.396 97.3034C103.427 95.3125 108.728 94.0836 114.122 93.6574ZM64.6662 136.275C64.4385 139.234 64.4385 142.205 64.6662 145.163C60.9747 146.791 57.7019 149.237 55.0959 152.317C52.4899 155.397 50.6191 159.029 49.6251 162.939C48.0291 161.34 41.4204 143.795 64.6662 136.275ZM257.928 254.556C256.333 257.063 251.775 258.656 243.35 259.798C213.038 263.898 149.226 279.397 119.372 289.654C106.16 294.209 94.0743 294.209 85.1847 289.424C79.9443 286.462 76.2967 282.135 75.1624 277.124L48.4862 166.585C48.9418 168.181 53.9529 169.319 55.0949 169.774C58.2144 170.602 61.435 170.986 64.6617 170.915C69.2371 170.882 73.7773 170.112 78.1083 168.637C80.8417 167.953 84.2615 166.815 87.9075 165.674C117.763 157.018 179.753 138.782 215.768 135.363C219.413 134.907 226.702 132.855 230.126 135.135C231.493 136.046 232.404 138.553 233.771 144.246L241.748 177.519C229.895 179.797 218.045 181.619 206.877 186.174C203.004 187.77 202.548 188.682 203.459 193.008L210.293 221.268C210.389 222.212 210.681 223.126 211.152 223.95C211.623 224.774 212.261 225.49 213.026 226.053C213.681 226.312 214.374 226.466 215.078 226.508C218.04 226.508 221 224.914 223.966 224.001C227.154 223.09 230.343 222.179 233.532 221.496C239.23 220.129 245.155 218.762 251.081 217.851H251.764L257.686 242.01C259.068 248.403 259.524 252.278 257.928 254.556Z" fill="#CFCFCF"/>
<path d="M237.188 199.404C236.927 198.284 236.424 197.236 235.716 196.33C235.008 195.425 234.111 194.685 233.088 194.162C230.909 193.006 228.38 192.692 225.985 193.28C223.59 193.869 221.494 195.317 220.098 197.351C219.43 198.254 218.98 199.3 218.782 200.406C218.584 201.512 218.644 202.649 218.958 203.729C220.098 208.515 225.568 211.018 230.125 209.883C234.453 208.747 238.327 204.189 237.188 199.404Z" fill="#CFCFCF"/>
<path d="M225.565 170.461C225.702 170.873 225.989 171.219 226.368 171.43C226.748 171.641 227.193 171.701 227.615 171.6C227.827 171.543 228.025 171.445 228.198 171.31C228.371 171.175 228.515 171.007 228.621 170.816C228.728 170.624 228.795 170.413 228.818 170.196C228.841 169.978 228.82 169.758 228.756 169.548C227.733 163.479 225.894 157.576 223.289 152C222.15 149.948 219.189 151.772 220.326 153.822C222.854 159.091 224.619 164.694 225.565 170.461Z" fill="#CFCFCF"/>
<path d="M207.789 146.762C200.268 147.218 193.202 149.496 185.91 151.318C183.859 151.773 184.77 155.192 186.821 154.507C193.655 152.685 200.723 150.407 207.789 149.951C208.029 149.955 208.268 149.91 208.491 149.82C208.713 149.729 208.916 149.595 209.086 149.425C209.255 149.255 209.39 149.053 209.48 148.83C209.57 148.608 209.615 148.369 209.611 148.129C209.479 147.745 209.234 147.41 208.91 147.167C208.585 146.923 208.195 146.782 207.789 146.762Z" fill="#CFCFCF"/>
<path d="M147.626 166.129C154.915 164.078 161.984 162.029 169.277 159.976C171.329 159.293 170.416 156.103 168.366 156.787C161.3 158.839 154.008 160.887 146.715 162.941C144.659 163.395 145.571 166.585 147.626 166.129Z" fill="#CFCFCF"/>
<path d="M106.6 178.436C113.433 176.158 120.274 174.336 127.111 172.283C129.162 171.599 128.251 168.409 126.2 169.094C119.366 171.145 112.525 172.969 105.689 175.247C105.468 175.296 105.259 175.39 105.075 175.522C104.891 175.655 104.737 175.824 104.621 176.019C104.505 176.213 104.43 176.43 104.401 176.654C104.372 176.879 104.389 177.107 104.451 177.325C104.513 177.543 104.619 177.746 104.763 177.921C104.906 178.097 105.084 178.241 105.286 178.345C105.487 178.449 105.707 178.51 105.933 178.526C106.159 178.542 106.386 178.511 106.6 178.436Z" fill="#CFCFCF"/>
<path d="M85.1756 180.715C81.5122 181.598 77.7737 182.132 74.0098 182.311C69.9603 182.576 65.8937 182.269 61.9298 181.4C59.8798 180.945 58.9671 184.134 61.0187 184.589C66.1066 185.692 71.3348 186 76.5169 185.5C79.739 185.191 82.9357 184.658 86.0837 183.904C88.3676 183.678 87.4549 180.26 85.1756 180.715Z" fill="#CFCFCF"/>
<path d="M241.517 229.258C242.187 231.809 242.72 234.395 243.113 237.003C243.408 241.387 242.147 242.556 241.517 243.156C240.057 244.07 238.431 244.69 236.732 244.978C234.338 245.557 231.9 245.938 229.443 246.117C228.96 246.117 228.496 246.309 228.155 246.651C227.813 246.993 227.621 247.456 227.621 247.939C227.621 248.423 227.813 248.886 228.155 249.228C228.496 249.57 228.96 249.762 229.443 249.762C233.774 249.306 238.331 248.85 242.207 247.028C245.625 245.206 246.762 242.017 246.762 238.373C246.618 234.964 246.005 231.591 244.94 228.35C244.48 226.296 241.062 227.208 241.517 229.258Z" fill="#CFCFCF"/>
<path d="M211.209 248.63C204.55 249.36 197.932 250.424 191.381 251.819C190.968 251.956 190.622 252.243 190.411 252.623C190.2 253.003 190.139 253.448 190.241 253.871C190.297 254.082 190.396 254.28 190.53 254.453C190.665 254.626 190.833 254.769 191.025 254.876C191.216 254.982 191.427 255.049 191.645 255.072C191.863 255.095 192.083 255.074 192.292 255.01C198.541 253.69 204.855 252.701 211.209 252.047C211.449 252.051 211.687 252.006 211.91 251.915C212.133 251.825 212.335 251.691 212.505 251.521C212.675 251.351 212.809 251.149 212.899 250.926C212.99 250.704 213.034 250.465 213.031 250.225C212.988 249.777 212.775 249.362 212.436 249.066C212.098 248.769 211.658 248.614 211.209 248.63Z" fill="#CFCFCF"/>
<path d="M173.603 256.152C167.681 257.746 161.523 259.57 155.598 261.394C153.548 262.077 154.459 265.268 156.509 264.583C162.431 262.76 168.353 260.938 174.513 259.341C176.566 258.887 175.653 255.468 173.603 256.152Z" fill="#CFCFCF"/>
<path d="M137.366 267.091C130.407 269.364 123.331 271.266 116.17 272.789C115.758 272.926 115.412 273.212 115.201 273.592C114.99 273.972 114.93 274.417 115.031 274.839C115.088 275.051 115.186 275.249 115.321 275.422C115.455 275.594 115.624 275.738 115.815 275.845C116.006 275.951 116.217 276.018 116.435 276.041C116.653 276.064 116.873 276.043 117.083 275.979C124.256 274.507 131.333 272.604 138.277 270.282C138.51 270.244 138.732 270.157 138.929 270.027C139.126 269.897 139.293 269.727 139.419 269.528C139.546 269.329 139.628 269.106 139.662 268.872C139.696 268.639 139.68 268.401 139.615 268.174C139.55 267.948 139.438 267.737 139.286 267.557C139.134 267.376 138.946 267.23 138.734 267.128C138.521 267.026 138.29 266.97 138.054 266.963C137.818 266.957 137.584 267.001 137.366 267.091Z" fill="#CFCFCF"/>
<path d="M97.7115 274.611C94.563 275.305 91.2961 275.254 88.1707 274.463C85.0452 273.672 82.1474 272.163 79.7077 270.055C79.3753 269.723 78.9243 269.536 78.4542 269.536C77.984 269.536 77.5331 269.723 77.2006 270.055C76.8682 270.388 76.6814 270.839 76.6814 271.309C76.6814 271.779 76.8682 272.23 77.2006 272.562C80.0674 275.096 83.5069 276.895 87.223 277.804C90.9775 278.601 94.8575 278.601 98.612 277.804C99.0244 277.667 99.3704 277.381 99.5816 277.001C99.7927 276.621 99.8537 276.176 99.7524 275.753C99.7631 274.839 98.6226 274.383 97.7115 274.611Z" fill="#CFCFCF"/>
</svg>
