<svg width="120" height="132" viewBox="0 0 120 132" fill="none" xmlns="http://www.w3.org/2000/svg">
<ellipse rx="4.07976" ry="4.08602" transform="matrix(0 -1 -1 0 115.09 103.725)" fill="#CCCCCC"/>
<ellipse rx="4.07976" ry="4.08602" transform="matrix(0 -1 -1 0 4.80265 103.725)" fill="#CCCCCC"/>
<ellipse rx="4.36409" ry="4.08602" transform="matrix(0 -1 -1 0 59.5107 116.587)" fill="#CCCCCC"/>
<line y1="-1" x2="113.489" y2="-1" transform="matrix(0.00637011 0.99998 0.999972 -0.0074675 59.75 0.230469)" stroke="#CCCCCC" stroke-width="2"/>
<path fill-rule="evenodd" clip-rule="evenodd" d="M116.011 100.511L115.684 53.2444L115.646 53.2447C115.528 52.3264 115.077 51.5065 114.516 50.8975C113.764 50.08 112.609 49.4308 111.442 49.5997L111.443 49.605L95.7506 49.605L95.7437 49.5677C95.6632 49.5825 95.5849 49.5949 95.5086 49.605H95.3788V49.62C94.23 49.7343 93.5761 49.2958 93.1742 48.7807C92.6684 48.1325 92.5104 47.2841 92.5449 46.871L92.5208 46.869L92.1986 0.228539L90.2193 0.242172L90.5458 47.5088L90.5952 47.5085C90.6928 48.2933 91.0071 49.221 91.6136 49.9983C92.4397 51.057 93.7697 51.7835 95.6243 51.5843L111.717 51.5843V51.495L111.726 51.5586C112.008 51.5178 112.557 51.6916 113.06 52.2378C113.537 52.7565 113.777 53.4096 113.672 54.0058L113.71 54.0125L114.031 100.525L116.011 100.511Z" fill="#CCCCCC"/>
<path fill-rule="evenodd" clip-rule="evenodd" d="M102.661 131.496L102.301 74.5769L102.251 74.5773C102.07 72.7408 101.392 71.4559 100.38 70.6252C99.3915 69.8136 98.2103 69.5423 97.2071 69.4812V69.4747H97.0856C96.9605 69.4691 96.8385 69.4666 96.7204 69.4666L96.7203 69.4747H76.6747L76.6719 69.4196C74.3051 69.5399 73.412 68.968 73.0346 68.4859C72.6521 67.9972 72.5579 67.3289 72.5418 66.516L72.5653 66.5158L72.1461 0.235245L70.1461 0.25029L70.5633 66.2077H70.539C70.539 67.1038 70.5535 68.5609 71.4597 69.7186C72.3512 70.8575 73.8827 71.4637 76.2291 71.4345V71.4747H96.9795C97.7596 71.5107 98.5223 71.7033 99.1025 72.1796C99.7162 72.6834 100.301 73.6507 100.301 75.6271L100.308 75.627L100.661 131.511L102.661 131.496Z" fill="#CCCCCC"/>
<path fill-rule="evenodd" clip-rule="evenodd" d="M17.4863 131.457L17.8471 74.5709L17.8977 74.5713C18.0845 72.754 18.7623 71.4805 19.77 70.6556C20.7628 69.8429 21.949 69.5723 22.9554 69.5119V69.4676H43.7904L43.7929 69.4215C46.0163 69.5421 46.839 68.9727 47.1917 68.4917C47.5556 67.9955 47.6501 67.3172 47.6683 66.5081L47.6659 66.5081L48.0863 0.22821L50.0863 0.24321L49.6683 66.1428H49.672C49.672 67.0504 49.6586 68.5099 48.8045 69.6745C47.923 70.8765 46.3741 71.5051 43.9918 71.4317V71.4676H23.4605L23.4609 71.4993C22.5813 71.4994 21.6982 71.677 21.0454 72.2114C20.4298 72.7153 19.8438 73.6823 19.8438 75.6578L19.8403 75.6577L19.4863 131.472L17.4863 131.457Z" fill="#CCCCCC"/>
<path fill-rule="evenodd" clip-rule="evenodd" d="M3.55957 100.52L3.89527 52.8164L3.9244 52.8166C4.04228 51.4513 4.63794 50.4658 5.54559 49.8479C6.57529 49.1469 7.82189 49.0513 8.69981 49.1443L24.181 49.1443L24.1823 49.1288C24.2639 49.1356 24.3435 49.1407 24.4213 49.1443H24.7727V49.1501C25.9972 49.1319 26.6922 48.7009 27.0895 48.2562C27.5882 47.6983 27.7313 46.9952 27.6979 46.5953L27.7096 46.5943L28.0356 0.255791L30.0134 0.269157L29.6886 46.4291L29.6887 46.429C29.7639 47.3297 29.473 48.5872 28.579 49.5875C27.698 50.5733 26.3161 51.218 24.3811 51.142L8.59002 51.142L8.58978 51.1436C8.58598 51.143 8.58217 51.1425 8.57836 51.142H7.97436V51.1144C7.51289 51.1342 7.03292 51.2487 6.66716 51.4977C6.23248 51.7936 5.74362 52.4256 5.94716 53.9993L5.88462 54.0076L5.5572 100.534L3.55957 100.52Z" fill="#CCCCCC"/>
</svg>
